<svg width="103pt" height="124" viewBox="0 0 103 93" xmlns="http://www.w3.org/2000/svg"><g fill="#2897b2"><path d="M8.65 0h13.53c5.64 7.71 13.19 13.71 19.71 20.63-.97 1.23-1.97 2.45-2.99 3.65.92 1.09 1.88 2.14 2.88 3.16 7.75.2 15.55.44 23.29-.2.34-1.03.68-2.05 1.02-3.08-1.38-1.09-2.75-2.18-4.14-3.26C68.9 13.93 75.89 7 82.81 0h4.39c-6.58 6.52-13.07 13.14-19.6 19.71-1.33.95.18 2.03.84 2.77 8.86 8.81 17.7 17.64 26.5 26.51.83.81 1.76 1.51 2.69 2.2 1.03-1.09 2.09-2.14 3.19-3.16.55.36 1.64 1.09 2.18 1.45v1.23c-2.05 1.6-4.06 3.24-6.03 4.94-1.43-1.73-2.98-3.38-4.88-4.61-2.34 2.79-4.93 5.34-7.57 7.85 1.26 5.01-2.28 9.25-6.79 10.82-1.76 3.29-3.92 7.78-8.48 7.03-.26 1.3-.51 2.6-.74 3.91-1.75 2.04-3.78 3.98-6.57 4.39-.71 4.16-4.57 8.09-9.04 7.17-3.37-1.05-7.5.66-10.32-1.96-1.75-1.34-2.39-3.52-2.99-5.53-3.71-.95-7.55-3.7-7.42-7.93-4.35-.11-8.09-3.6-7.89-8.07-2.72-.12-5.73-1.15-6.86-3.86-1.67-2.53-.67-5.53.35-8.08-1.25-2.36-3.37-4.8-5.94-5.64-2.17.94-3.42 3.12-4.97 4.8-2.09-2.13-4.6-3.98-5.87-6.76.8-.59 1.6-1.18 2.39-1.77.99 1.42 2.09 2.76 3.42 3.87 9.51-9.65 19.13-19.2 28.72-28.76.67-.74 2.24-1.93.85-2.86C30.19 13.28 23.8 7.1 17.66.67c-2.99-.43-6-.6-9.01-.67m26.19 27.53c-6.37 7.1-13.34 13.68-20.16 20.36-.03.32-.08.97-.1 1.29 2.61 1.09 3.96 3.85 6.3 5.38 4.91-1.17 9.91 2.77 9.73 7.85 4.4-.4 8.06 3.53 7.99 7.8 4.52-.39 7.49 3.85 8.18 7.85 2.35-.12 4.15 1.49 6.3 2.09a48.57 48.57 0 0 0-.95-3.78l1.91-1.47c2.32 2.07 4.16 4.66 6.76 6.42 1.67.44 3.28-.28 4.7-1.09.07-1.6.77-3.53-.44-4.89-1.87-2.44-5.75-4.21-4.74-7.89 3.67.22 4.81 4.12 7.66 5.68 2.53 1.49 6.44-1.11 5.66-4.02-1.64-2.89-4.23-5.05-6.67-7.23.86-.94 1.76-1.82 2.73-2.65 2.34 2.9 4.94 5.78 8.37 7.39 1.63-1.57 3.8-3.1 3.43-5.7-4.76-5.37-10.11-10.17-15.03-15.39-2.63-2.91-6.98-1.72-10.4-1.59-4.7 2.01-6.77 8.11-12.19 8.95-4.87 1.49-9.23-2.29-11.95-5.91 5.44-5.33 11.26-10.44 15.95-16.4-3.48.05-8.33 1.41-9.75-2.98-1.07-.4-2.2-.37-3.29-.07m32.99.07c-.42 1.29-1.46 2.17-2.4 3.08-4.19-.04-8.38-.02-12.57-.03-4.1 4.6-8.68 8.76-12.96 13.2-1.04 1.26-3.39 1.93-2.73 3.98 1.95 2.54 5.92 2.5 8.45.9 3.02-2.4 5.42-5.45 8.38-7.92 4.89.23 11.23-2.08 14.86 2.28 4.15 4.3 8.59 8.32 12.38 12.95 3.27-.5 5.01-3.65 7.28-5.71.49-.59 1.74-1.56.83-2.38-6.84-6.66-13.66-13.36-20.23-20.29-.32-.01-.97-.05-1.29-.06M19.36 63.25c2 3.2 5.78 2.27 8.14.03.52-2.33-1.3-3.86-2.22-5.75-3.29-.6-6.32 2.44-5.92 5.72m9.71 2.5c-1.93 1.78-1.77 4.55-.3 6.57 2.67 2.56 6.94-.32 6.55-3.6-1.24-2.34-3.59-3.71-6.25-2.97m7.08 9.34c-2.34 2.37.92 5.08 2.77 6.45 2.37-1.03 4.4-2.8 4.2-5.63-1.79-2.06-4.92-3.25-6.97-.82m8.45 13.19c1.82 0 4.64 1.25 5.61-1.02.91-2.04.6-5.66-2.26-5.8-3.88-1.23-6.25 4.33-3.35 6.82z"/><path d="M96.31 40.36c2.05.7 2.82 2.37 2.52 4.44-1.14-.06-2.27-.14-3.41-.21a7.68 7.68 0 0 1 .89-4.23zm-90.79.95c.96.02 1.93.05 2.89.08l.12 2.89c-.38.28-1.12.84-1.5 1.12-1.87-.66-3.2-2.36-1.51-4.09z"/></g></svg>