<svg width="95pt" height="95pt" viewBox="0 0 95 95" xmlns="http://www.w3.org/2000/svg"><g fill="#1e93af"><path d="M4.76 8.77C8.11 3.78 14.13 1.21 19.99.88c6.04.09 12.09 2.5 15.89 7.29 2.64 3.62 4.01 7.96 5.68 12.07-1.35 5.19-4.2 9.87-6.57 14.66 8.66 8.2 17.81 15.9 26.86 23.68 1.1-.5 2.21-.99 3.32-1.48 2.49-1.14 5.07-2.07 7.68-2.9-.02-4.48-.02-8.95-.01-13.43a70.27 70.27 0 0 1-7.74-2.85c-6.45-2.86-9.54-9.75-10.8-16.3-.89.05-2.68.13-3.57.17.04-.87.07-1.74.11-2.61l3.44.32c1.04-7.16 5.35-13.76 11.89-17.04C73.08.02 81.75.32 87.19 5.79c5.46 4.62 8.14 12.38 6.25 19.34-1.88 8.3-9.67 14.12-17.78 15.6.1 4.51.12 9.01-.02 13.52 1.09.23 2.17.46 3.25.7 6.22 2.18 12.12 6.58 14.11 13.12 3.91 10.53-3.36 23.17-14.23 25.46-3.55.4-7.19.41-10.68-.41-4.98-1.9-8.91-5.76-11.63-10.26-.9-2.36-1.73-4.74-2.23-7.21-4.54.13-9.07.11-13.6.01-1.25 7.61-6.34 14.72-13.72 17.36-4.17 1.08-8.58 1.12-12.76.04C7.2 90.33 1.46 83.82.92 76.2c-.04-4.31.47-8.88 3.08-12.46 1.9-3.23 5.09-5.31 8.17-7.27 2.32-.98 4.68-1.9 7.19-2.24-.14-4.51-.13-9.02-.02-13.52-1.02-.24-2.04-.49-3.06-.74-4.72-1.78-9.73-4.15-12.31-8.73C-.46 24.56 0 15.16 4.76 8.77m9.99-3.9C7.29 7.18 2.63 15.61 4.18 23.18c.55 2.1.17 4.88 2.35 6.08 1.3-2.07 2.42-4.71 4.94-5.52 2.8-.59 5.69-.43 8.53-.49l-.04-1.13c-4.96-.11-7.93-6.32-5.21-10.35 2.66-4.23 9.82-4.01 11.97.62 2.62 4.23-1.38 9.7-6 9.92 2.88 2.17 7.03.03 10.12 1.88 2.19 1.18 2.68 3.84 3.5 5.95 3.6-5.43 3.91-13.08.3-18.61-3.9-6.59-12.82-9.35-19.89-6.66m57.19-1.1c-5.16 1.21-10.2 3.99-12.55 8.98-3.29 5.47-1.57 12.11.53 17.68l1.13.03c.53-1.97.56-4.42 2.26-5.82 2.96-2.06 6.75-1.04 10.11-1.45-1.8-2.1-5.03-3.06-5.63-6.05-1.08-3.1 1.07-5.94 3.25-7.91 2.56-.51 5.57-.89 7.67 1.06 2.71 1.79 2.41 5.5 1.74 8.25-1.23 1.82-3.16 3.01-4.75 4.49 3.1.19 6.21.48 9.24 1.19 1.55 1.7 2.3 3.89 3 6.05 2.09-1.7 2.06-4.67 2.8-7.05 1.47-5.2-1.04-10.59-4.41-14.47C82.68 4.9 77.1 3.5 71.94 3.77m-52.7 8.35c-2.09.82-3.49 3.47-1.63 5.28 1.61 2.98 6.45 1.69 6.8-1.47.06-2.42-2.79-5.15-5.17-3.81m53.01.08c-1.98 1.19-2.02 4.39-.34 5.86 1.65 1.88 5.32 1.3 5.88-1.26 1.27-3.15-2.68-6.15-5.54-4.6m-61.5 15.94c-1.27 2.48.32 5.15.93 7.57 1.38-1.32 2.77-2.64 4.17-3.95.17 1.82.33 3.64.5 5.47 2.6-.01 5.2-.01 7.79-.03.81-2.06 1.8-4.06 3.36-5.65.21.97.64 2.9.85 3.87.83-.55 1.66-1.11 2.5-1.65-.31-2.29.3-5.2-1.62-6.91-4.69-.85-9.56-.54-14.31-.34-1.44.19-3.49-.01-4.17 1.62m54.06-1.61c-.48 2.97-.48 5.98 0 8.95 1.18-1.13 2.35-2.27 3.53-3.4.86 1.68 1.67 3.39 2.44 5.12 2.42.02 4.84.02 7.26.02.73-1.86 1.45-3.73 2.18-5.59 1.22 1.34 2.45 2.68 3.7 3.99.23-3.03.23-6.07.06-9.1-6.39.02-12.78.01-19.17.01m-42.57 14.4c0 4.34 0 8.68.01 13.02 9.31 1.68 17.18 9.32 18.49 18.79 4.45.02 8.89.06 13.34-.04 1.13-4.33 3.1-8.34 5.12-12.31-8.79-7.44-17.16-15.38-26.18-22.53-3.82-.35-7.23 1.98-10.78 3.07M9.1 62.11c-4.46 3.84-6.09 10.27-4.78 15.9.45 1.88.35 4.36 2.42 5.3.76-1.56 1.5-3.12 2.23-4.7 3.58-1.68 7.59-1.14 11.4-1.44-2.48-2.19-6.68-3.34-6.61-7.41-.66-6.14 7.7-10.13 11.81-5.3 4.2 4.03 1.04 11.23-4.52 11.66L21 77.29c3.1.07 6.25-.12 9.31.5 2.49.62 3.02 3.45 3.87 5.49.09-.05.27-.15.37-.2 1.92-.73 1.62-3.24 2.19-4.86 1.39-5.52-.15-11.7-4.26-15.69-5.94-6.44-17.2-6.6-23.38-.42m50.01 4.99c-2.85 5.43-1.7 12.24 1.67 17.15.76-2.34.97-5.8 3.87-6.5 4.76-.7 9.6-.39 14.4-.41 2.26.17 4.76-.13 6.73 1.24 1.02 1.63 1.06 4.02 3.14 4.75 1.84-4.57 2.59-9.72 1.19-14.52-1.59-4.91-5.67-8.81-10.49-10.52-7.77-2.44-17.09 1.3-20.51 8.81m-40.74-.77c-3.25 2-.73 6.94 2.62 6.95 1.91-.92 3.67-2.7 3.36-4.99-.92-2.23-3.98-4.06-5.98-1.96m47.34 14.41c-2.68 2.09-1.1 5.82-.69 8.58.99-.99 1.98-1.98 2.96-2.98 1.53 4.27 6.31 5.21 10.29 4.39.66-1.72 1.34-3.43 2.03-5.13 1.21 1.28 2.41 2.58 3.61 3.88-.01-2.77 1.56-6.32-.8-8.53-5.67-1.14-11.67-.89-17.4-.21m-55.53.27c.32 2.8.74 5.58 1.26 8.36 1.26-1.24 2.52-2.48 3.77-3.72.48 1.69.96 3.38 1.43 5.07 2.54-.03 5.26.58 7.65-.52 1.44-.7 1.04-2.68 1.51-3.94 1.51.92 3.04 1.83 4.57 2.74.08-2.69.17-5.38.33-8.07-6.8-.93-13.73-.97-20.52.08z"/><path d="M44.37 20.15c-.29-1.51 1.72-1.53 2.66-2.01.39.52 1.16 1.54 1.55 2.05-.54.91-1.06 1.82-1.59 2.73-1.23-.53-3.02-1.03-2.62-2.77zm11.18 17.18c.95.01 1.89.03 2.84.04-.04.96-.09 1.91-.13 2.86-.93-.07-1.86-.15-2.79-.23l.08-2.67zm-4.31 3.88c1.2.09 2.4.19 3.59.31-.3 1.09-.62 2.18-.96 3.26-.63-.08-1.87-.25-2.5-.33-.05-1.08-.09-2.16-.13-3.24zM39.81 53.99c.67-1.04 1.35-2.06 2.04-3.08 1.12.97 3.43 2.14 1.95 3.84-1.15 1.8-2.73-.19-3.99-.76zm-3.44 4.79c-.22-2.24 1.33-3.08 3.38-2.8v2.89c-1.13-.02-2.25-.05-3.38-.09zm36.09 3.77c4.42-1.5 9.42 2.87 8.4 7.49.32 5.81-8.22 7.88-11.56 3.72-3.41-3.46-1.46-9.93 3.16-11.21m-.27 2.77c-.69 1.72-1.38 3.44-2.07 5.17 1.51.93 2.92 2.32 4.79 2.43 2.06-.37 3.43-2.74 3.08-4.74-1.04-2.28-3.62-2.54-5.8-2.86z"/></g><path d="M19.24 12.12c2.38-1.34 5.23 1.39 5.17 3.81-.35 3.16-5.19 4.45-6.8 1.47-1.86-1.81-.46-4.46 1.63-5.28zm53.01.08c2.86-1.55 6.81 1.45 5.54 4.6-.56 2.56-4.23 3.14-5.88 1.26-1.68-1.47-1.64-4.67.34-5.86zm-61.5 15.94c.68-1.63 2.73-1.43 4.17-1.62 4.75-.2 9.62-.51 14.31.34 1.92 1.71 1.31 4.62 1.62 6.91-.84.54-1.67 1.1-2.5 1.65-.21-.97-.64-2.9-.85-3.87-1.56 1.59-2.55 3.59-3.36 5.65-2.59.02-5.19.02-7.79.03-.17-1.83-.33-3.65-.5-5.47-1.4 1.31-2.79 2.63-4.17 3.95-.61-2.42-2.2-5.09-.93-7.57zm54.06-1.61c6.39 0 12.78.01 19.17-.01.17 3.03.17 6.07-.06 9.1-1.25-1.31-2.48-2.65-3.7-3.99-.73 1.86-1.45 3.73-2.18 5.59-2.42 0-4.84 0-7.26-.02-.77-1.73-1.58-3.44-2.44-5.12-1.18 1.13-2.35 2.27-3.53 3.4-.48-2.97-.48-5.98 0-8.95zm-46.44 39.8c2-2.1 5.06-.27 5.98 1.96.31 2.29-1.45 4.07-3.36 4.99-3.35-.01-5.87-4.95-2.62-6.95zm53.82-1.01c2.18.32 4.76.58 5.8 2.86.35 2-1.02 4.37-3.08 4.74-1.87-.11-3.28-1.5-4.79-2.43.69-1.73 1.38-3.45 2.07-5.17zm-6.48 15.42c5.73-.68 11.73-.93 17.4.21 2.36 2.21.79 5.76.8 8.53-1.2-1.3-2.4-2.6-3.61-3.88-.69 1.7-1.37 3.41-2.03 5.13-3.98.82-8.76-.12-10.29-4.39-.98 1-1.97 1.99-2.96 2.98-.41-2.76-1.99-6.49.69-8.58zm-55.53.27c6.79-1.05 13.72-1.01 20.52-.08-.16 2.69-.25 5.38-.33 8.07-1.53-.91-3.06-1.82-4.57-2.74-.47 1.26-.07 3.24-1.51 3.94-2.39 1.1-5.11.49-7.65.52-.47-1.69-.95-3.38-1.43-5.07-1.25 1.24-2.51 2.48-3.77 3.72-.52-2.78-.94-5.56-1.26-8.36zm24 2.27l.37-.2c-.1.05-.28.15-.37.2z" fill="#feffff"/></svg>