<svg width="94pt" height="95pt" viewBox="0 0 94 95" xmlns="http://www.w3.org/2000/svg"><g fill="#1e93af"><path d="M69.84.61c7.86 0 15.72-.02 23.58.01a238.55 238.55 0 0 1-4.61 7.49c1.51 2.57 3.13 5.08 5.19 7.25v.34c-7.1-.23-14.21-.01-21.31-.12.06 4.36.03 8.73.07 13.1 2.82 1.36 5.64 3.29 5.14 6.85-1.65 1.71-4.09 2.9-5.02 5.17-.4 6.19-.04 12.4-.12 18.6 4.59-2.75 9.16-5.55 13.66-8.45-.84-.28-2.53-.85-3.38-1.13 2.35-3.5 6.74-2.12 10.26-2.42l.7-.1v2.53l-.48.3c-1.32 2.22-1.91 4.77-2.53 7.25-1.05-1.36-2.09-2.73-3.05-4.15C70.4 64.38 52.78 75.52 35.21 86.74c-2.84-3.39-5.61-6.84-8.24-10.4-8.54 6.07-16.86 12.46-25.74 18.05.01-.8.03-2.39.03-3.19 8.77-6.08 17.24-12.57 26.14-18.46 3.11 3.7 6.15 7.48 9.79 10.69.46-15.71-.77-31.49 1.13-47.14-2.91 3.23-4.85 7.14-7.24 10.73-2.83.03-5.23-1.28-6.89-3.54 1.89-10.47 11.11-19.1 21.75-19.91 6.15.29 10.91 4.67 15.46 8.32 2.49 1.95 5.68-.18 8.35-.67.18-10.2.03-20.41.09-30.61M73 3.53v8.94c5.01-.01 10.03.11 15.03-.21-.95-1.22-1.91-2.44-2.87-3.66.94-1.76 1.9-3.51 2.87-5.25-5.01.29-10.02.19-15.03.18M27.36 44.28c3.93-1.37 4.71-5.88 7.34-8.65 2.47-3.25 6.27-5.03 10.21-5.77-2.2 5.49-4.74 11.05-4.62 17.1-.04 10.96-.03 21.92.01 32.88 1.28-1.08 3.7-1.63 3.15-3.81.07-9.32.03-18.64-.02-27.96 1.43-.03 2.87-.05 4.31-.07 3.21 3.47 6.53 6.85 9.83 10.23-.04 3.54-.04 7.07-.05 10.6 1.07-.65 2.15-1.31 3.23-1.96-.3-3.91 1.04-8.59-1.88-11.79-3.26-3.98-7.03-7.5-10.57-11.23 1.05-3.75 2.5-7.35 4.23-10.83 3.29 2.59 6.55 5.47 10.57 6.84 3.31-.29 6.39-2.42 7.7-5.53-3.12.94-6.3 1.71-9.58 1.79-4.47-4.3-9.54-9.44-16.21-9.33-8.88 1.18-16.38 8.6-17.65 17.49m45.62-11.12c-.58 1.64-.05 2.2 1.58 1.67.58-1.63.05-2.19-1.58-1.67m-19.56 5.75c-.57 1.34-1.05 2.72-1.55 4.08 3.87 3.92 7.89 7.73 11.26 12.1 1.27 3.1.52 6.65.65 9.92 2.12-1.38 4.24-2.77 6.36-4.14-.51-6.63-.58-13.29-.1-19.92-2.54.97-5.2 2-7.97 1.53-3.26-.2-5.63-2.73-8.65-3.57m-6.74 12.73c-.19 8.12-.06 16.25-.08 24.37 2.65-1.53 5.24-3.16 7.85-4.75-.06-4.08-.01-8.16-.09-12.24-2.4-2.62-4.82-5.24-7.68-7.38z"/><path d="M48.65 14.12c1.5-2.17 3.22-5.07 6.26-4.89 2.24-.33 4.28.64 6.19 1.65.87 1.61 1.84 3.2 2.34 4.98.2 5.15-5.61 9.47-10.42 7.11-3.55-1.3-4.8-5.4-4.37-8.85m3.96-.45c-1.73 1.85-.16 4.45.09 6.59 2.24-.24 5.54.89 6.85-1.62 1.62-2.01-.3-4.42-.77-6.52-2.06.33-4.68-.27-6.17 1.55z"/></g><path d="M73 3.53c5.01.01 10.02.11 15.03-.18-.97 1.74-1.93 3.49-2.87 5.25.96 1.22 1.92 2.44 2.87 3.66-5 .32-10.02.2-15.03.21V3.53zM52.61 13.67c1.49-1.82 4.11-1.22 6.17-1.55.47 2.1 2.39 4.51.77 6.52-1.31 2.51-4.61 1.38-6.85 1.62-.25-2.14-1.82-4.74-.09-6.59zM27.36 44.28c1.27-8.89 8.77-16.31 17.65-17.49 6.67-.11 11.74 5.03 16.21 9.33 3.28-.08 6.46-.85 9.58-1.79-1.31 3.11-4.39 5.24-7.7 5.53-4.02-1.37-7.28-4.25-10.57-6.84-1.73 3.48-3.18 7.08-4.23 10.83 3.54 3.73 7.31 7.25 10.57 11.23 2.92 3.2 1.58 7.88 1.88 11.79-1.08.65-2.16 1.31-3.23 1.96.01-3.53.01-7.06.05-10.6-3.3-3.38-6.62-6.76-9.83-10.23-1.44.02-2.88.04-4.31.07.05 9.32.09 18.64.02 27.96.55 2.18-1.87 2.73-3.15 3.81-.04-10.96-.05-21.92-.01-32.88-.12-6.05 2.42-11.61 4.62-17.1-3.94.74-7.74 2.52-10.21 5.77-2.63 2.77-3.41 7.28-7.34 8.65zm45.62-11.12c1.63-.52 2.16.04 1.58 1.67-1.63.53-2.16-.03-1.58-1.67z" fill="#fff"/></svg>