<svg width="1000" height="163pt" viewBox="0 0 750 163" xmlns="http://www.w3.org/2000/svg"><path d="M40.15 4.12c1.51-1.67 3.89-4.49 6.23-2.46 2.74 2 1.67 5.66 1.17 8.45-3.1 14.49-6.78 28.85-9.92 43.33-.3 1.37-.76 2.7-1.27 4 9.86-13.14 20.02-26.06 30.35-38.85 5.4-6.2 10.43-13.01 17.43-17.51 1.94-1.65 5.55.3 4.67 2.92-1.36 5.86-4.85 10.99-7.39 16.4-5.91 12.31-12.37 24.52-15.89 37.78-1.18 3.91-1.29 8.01-1.31 12.06-2.01 0-4.01.01-6.02.02.72-11.43 5.17-22.15 9.52-32.6 4.73-10.25 9.96-20.26 15.05-30.33-12.82 13.77-24.2 28.82-35.84 43.59-5.26 6.64-9.38 14.27-15.72 19.99-1.16-1.33-2.27-3.01-1.53-4.84 4.1-18.58 8.41-37.14 12.14-55.8a458.357 458.357 0 0 1-16.16 35.38c-5.2 9.4-10.2 19.11-17.56 27.05-2.17-.05-4.34-.07-6.51-.09 1.67-2.3 3.62-4.38 5.49-6.51 10.55-12.72 17.1-28.05 24.01-42.9 2.98-6.37 5.03-13.25 9.06-19.08zm292.64 6.45c.84-2.4 2.5-4.36 4.13-6.25.62.43 1.87 1.29 2.49 1.72-1.31 6.88-5.23 12.87-7.43 19.47l7.25-.03c-.55 1.37-1.1 2.74-1.63 4.11-2.52-.01-5.03.03-7.53.18-3.96 10.68-8.8 21.01-12.87 31.65-.45 1.39-.81 2.82-1.08 4.26 3.44-.43 6.03-2.89 8.82-4.7 3.23-2.47 6.59-4.77 9.68-7.41 1.92-4.99 4.49-9.79 8.53-13.4 3.57-3.79 8.42-5.8 13.13-7.73.91.85 1.81 1.69 2.7 2.55-3.87 3.39-9.37 4.35-12.69 8.46-5.14 5.7-9.4 14.34-5.29 21.78 1.83.54 3.8 1.58 5.73.75 2.98-1.33 5.19-3.83 7.51-6.04-2.3-4.46-3.1-9.95-.9-14.62 1.18-3.02 3.65-5.2 6.04-7.26 2.8-.38 5.21 1.24 5.9 4 1.17 5.79-2.48 10.9-4.38 16.1 3.86-1.38 7.08-3.94 10.22-6.49.02 1.54.04 3.07.08 4.61-3.92 3.28-8.5 6.73-13.92 6.2-4.11 4.15-8.91 9.46-15.41 8.28-5.2-1.19-7.7-6.92-7.72-11.84-5.15 3.67-10.3 7.36-15.76 10.54-1.83 1.19-4.02 1.39-6.14 1.46-.76-.8-1.53-1.59-2.3-2.38.47-5.78 3.88-10.77 5.9-16.1-2.62 2.27-5.28 4.5-8.15 6.45-5.94 4.01-11.29 9.04-17.92 11.94-2.06 1.34-3.68-1.05-4.27-2.76 4.09-9.19 8.59-18.2 12.78-27.35-10.71 7.2-19.96 16.37-28.13 26.31-1.34 1.57-2.81 3.16-4.78 3.91-1.92.02-3.63-2.32-2.67-4.07 1.87-4.33 4.36-8.37 6.65-12.49-5.5 4.22-11.02 8.42-16.75 12.31-4.41 3.02-9.84 5.09-15.22 3.88-4.62-1.41-7.29-6.38-6.89-11.05-4.69 3.7-9.52 7.22-14.58 10.39-1.53 1.14-3.49.81-5.27.87-.25-2.02-1.01-4.21.12-6.11 3.69-7.48 7.29-15.01 10.88-22.54-.3.06-.91.17-1.21.22-5.06 5.3-10.53 10.2-15.18 15.87-4.23 4.24-7.44 9.53-12.56 12.82-.57-.19-1.7-.57-2.27-.75-.3-4.39 2.64-8 4.16-11.9 2.36-5.67 5.65-10.95 7.42-16.85-10.99 8.66-18 21.36-29.2 29.74-1.21-1.05-3.66-2.12-2.65-4.11 1.83-4.47 4.38-8.6 6.89-12.71-8.57 5.49-15.98 12.83-25.3 17.09-.82-.64-1.65-1.28-2.47-1.91-.1-5.83 4.01-10.5 6.49-15.47-3.89 2.92-7.84 6.21-12.8 7.02-2.93.6-5.69-.95-7.97-2.62-4.58 5.62-10.2 12.01-17.99 12.3-3.46.63-6.89-2.37-6.79-5.86.18-4 2.35-7.53 4.42-10.84-5.08 3.79-10.35 8.89-17.18 8.35-3.65 3.77-7.7 8.45-13.42 8.35-4.58.35-8.01-3.99-8.96-8.06-1.7-8.57 2.45-17.34 8.77-23.02 3.62-3.64 8.42-5.61 13.15-7.36.69.81 1.34 1.65 1.94 2.54-1.64 2.21-4.4 2.98-6.72 4.24-5.26 2.58-8.82 7.61-11.18 12.83-1.41 3.58-2.28 7.79-.48 11.4 1.03 2.74 4.7 3.58 7.13 2.26 2.65-1.44 4.73-3.66 6.93-5.68-3.93-6.71-2.58-15.98 3.72-20.76 2.25-2.34 6.39-.93 7.08 2.16 1.48 5.99-1.82 11.49-4.35 16.64 5.22-1.45 8.93-5.66 13.22-8.71 4.78-3.52 6.5-9.41 8.71-14.63 1.7.03 3.4.06 5.1.1-3.04 7.03-6.37 13.93-9.43 20.94-1.46 3.49-3.7 6.95-3.21 10.9 7.31.28 12.33-5.75 16.39-10.98 1.81-2.16 1.86-5.08 2.66-7.66 1.42-4.96 3.33-10.17 7.34-13.64.56.08 1.7.23 2.26.31.82 7.46-3.52 14.24-7.1 20.44 2.87 2.5 7.38 2.41 10.4.22 3.71-2.54 7.13-5.5 10.44-8.53 3.18-3.49 4.38-8.23 6.87-12.17 1.61.06 3.22.11 4.83.16-4.82 9.88-9.52 19.84-13.91 29.91 7.75-3.88 14.16-9.95 20.86-15.35 4.84-3.62 6.78-9.48 9.46-14.63 1.63 0 3.27.01 4.9.02-3.3 7.73-7.24 15.17-10.8 22.79 7.52-7.36 14.36-15.5 22.85-21.78 1.32-1.23 3.14-1.34 4.83-1.58.35.47 1.05 1.42 1.41 1.89-2.26 7.61-6.43 14.47-8.98 21.97 4.69-6.53 10.8-11.82 16.43-17.51 3.26-2.74 6.48-6.51 11.14-6.33 1.46 2.77-.29 5.59-1.39 8.13-3.05 6.22-5.83 12.57-8.77 18.84-.56 1.13-.89 2.36-1.03 3.62 4.21-2.35 8-5.37 11.9-8.19 3.84-2.53 4.24-7.6 7.32-10.79 4.19-4.57 8.99-8.99 14.98-11 3.7-.99 8.81-.96 10.6 3.14 1.14 5.54-2.34 10.8-6.7 13.88-5.33 4.57-12.5 5.75-19.3 5.7-.51 3.3.3 6.4 2.82 8.66 3.26.28 6.65.19 9.64-1.32 8.86-4.5 16.07-11.47 23.73-17.65 3.19-3.72 4.6-8.48 7.15-12.59l4.82.18c-4.01 7.89-7.73 15.92-11.36 24 5.27-5.31 10.44-10.75 16.23-15.5 4.33-3.89 8.75-8.06 14.48-9.75.46.6 1.39 1.79 1.86 2.39-3.11 10.09-8.89 19.09-12.54 28.97 6.61-3.28 12.11-8.29 17.79-12.9 3.36-2.5 6.66-5.2 9.24-8.53 2.3-4.47 3.72-9.36 5.89-13.9-2.98 0-5.96.02-8.94-.03.54-1.45 1.25-2.82 2.07-4.13 2.86.08 5.73.06 8.6-.06 2.07-4.9 4.14-9.81 5.96-14.81M252.5 38.49c-7.19 2.37-12.48 8.26-16.21 14.64 8.78 1.12 19.13-4.25 20.68-13.49-1.39-.67-2.86-1.8-4.47-1.15m106.76 4.69c-2.66 3.77-3.14 8.45-2.34 12.91 2.24-3.8 4.01-7.9 4.68-12.29-.58-.15-1.76-.47-2.34-.62M97.25 55.94c2.12-3.67 4.17-7.57 4.54-11.87-.47-.25-1.41-.76-1.88-1.01-3.17 3.48-3.57 8.45-2.66 12.88z"/><path d="M168.74 21.77c.93-1.61 3.83-2.05 4.85-.33 1.83 2.11-.08 4.85-1.54 6.57-1.05 1.58-3.08.52-4.61.61-.24-2.36-.63-5.04 1.3-6.85zm458.57 75.65c5.13-6 12.83-9.47 20.64-10.01 7.28-.55 14.9-.14 21.51 3.27 8.4 4.11 13.86 12.62 16 21.53 2.44 10.64 2.41 22-.96 32.44-2.86 8.81-10.26 15.81-19.15 18.35h-24.99c-6.19-1.85-11.87-5.62-15.51-11.01-5.28-7.49-6.87-16.92-6.66-25.91-.16-10.15 2.23-20.9 9.12-28.66m18.08 4.36c-7.84 2.79-11.52 11.41-12.09 19.17-.36 7.98-.81 16.79 4.02 23.65 7.25 9.94 24.64 9.33 31.02-1.3 4.58-7.84 4.68-17.51 3.03-26.22-.99-5.98-4.27-11.97-9.89-14.71-5-2.26-10.93-2.39-16.09-.59zM1.46 89.48c17.64 0 35.28-.01 52.91 0-.01 4.28 0 8.55-.04 12.83-12.73-.01-25.46-.03-38.19.01.03 5.1.03 10.2 0 15.3 11.73.01 23.45.02 35.18-.01.03 4.3.02 8.6.03 12.9-11.74-.04-23.47-.02-35.21-.01.04 6.23.03 12.46.01 18.69 13.32.02 26.65.01 39.97.01.01 4.3.01 8.6.01 12.91-18.23-.04-36.46.08-54.69-.06.09-24.19.03-48.38.02-72.57zm57.2.01c7.3.06 14.62-.17 21.91.08 4.83 17.48 8.67 35.31 13.28 52.88 4.24-17.66 8.84-35.24 12.91-52.95 7.26-.05 14.53-.02 21.8-.01-.01 24.17-.09 48.35.04 72.52-4.72.17-9.45.09-14.18.1.03-16.5.01-32.99.02-49.48-4.77 16.41-8.91 32.99-13.43 49.47-5 .02-10 .01-15 .01-4.56-16.02-8.5-32.22-13.09-48.22-.55 16.05-.11 32.14-.22 48.21-4.68.02-9.35.01-14.02.01 0-24.21.02-48.41-.02-72.62zm194.45-.03c17.71.1 35.42-.12 53.13.11-.05 4.23-.04 8.47-.04 12.71-12.83.11-25.66-.11-38.49.11.09 5.08.02 10.16.08 15.25 11.8 0 23.6-.07 35.39.03.01 4.25 0 8.5.03 12.75-11.82.16-23.64 0-35.45.09.01 6.23 0 12.45 0 18.68 13.33.02 26.65.01 39.97.01.01 4.3-.01 8.6.03 12.9-18.23.02-36.45.01-54.68 0 .07-24.21.01-48.43.03-72.64zm57.18.03c17.67-.02 35.34-.03 53.01 0-.03 4.28-.02 8.55-.04 12.82-12.76-.02-25.52-.01-38.27-.01.01 5.11.02 10.22-.01 15.32 11.78.02 23.56-.02 35.34.02.01 4.28 0 8.55.03 12.82-11.78.06-23.56.02-35.33.02-.04 6.24.04 12.48-.06 18.71 13.39.05 26.77-.05 40.16.06v12.85c-18.28.02-36.55.01-54.83 0 .04-24.2.05-48.41 0-72.61zm101.85 0c4.71-.02 9.43-.04 14.15.02-.03 24.2-.01 48.4-.01 72.59-4.67.01-9.33.02-14 0-10.24-16.24-20.44-32.5-30.75-48.69-.03 16.23-.02 32.46 0 48.7h-14.02c.02-24.21.03-48.42 0-72.62 5.29-.04 10.58.05 15.88-.09 9.69 15.52 19.03 31.26 28.79 46.73-.04-15.54.04-31.09-.04-46.64zm19.09-.01c9.25-.01 18.51-.01 27.76-.01 8.11-.07 16.41 2.5 22.46 8.03 7.22 6.36 10.61 16.12 10.91 25.56.31 9.44-1.55 19.34-7.15 27.14-5.22 7.41-14.18 11.85-23.2 11.9-10.26.04-20.52 0-30.78 0 .05-24.2.05-48.41 0-72.62m14.45 12.78c.02 15.82 0 31.64.01 47.46 7.95-.48 16.95 1.75 23.93-3.17 6.51-5 7.09-13.96 7.45-21.51-.27-7.19-.89-16.07-7.72-20.26-7.18-4.04-15.82-2.11-23.67-2.52zm50.79-12.78c17.64 0 35.28-.01 52.92.01-.03 4.27-.01 8.54-.05 12.82-12.73-.01-25.47-.03-38.2.01.04 5.1.04 10.19 0 15.29 11.73.02 23.47.03 35.2 0 .02 4.3.02 8.6.03 12.89-11.75-.02-23.49-.02-35.23 0 .05 6.23.04 12.46.01 18.69 13.33.02 26.65.02 39.98 0v12.92c-18.19.04-36.38-.08-54.57.06-.17-24.23 0-48.46-.09-72.69zm57.21 0c9.43 0 18.86-.02 28.3 0 9.26-.08 18.72 3.66 24.75 10.83 5.79 6.77 8.47 15.82 8.08 24.66.38 10.11-2.5 20.73-9.59 28.21-5.39 5.8-13.3 8.94-21.17 8.93-10.12.01-20.25-.01-30.36 0 0-24.21.02-48.42-.01-72.63m14.68 12.74c.07 15.86-.09 31.73.09 47.59 7.99-.64 17.13 1.72 24.05-3.49 6.36-5.41 7.14-14.55 7.09-22.35-.04-7.09-1.39-15.67-8.19-19.46-7.09-3.68-15.39-1.82-23.04-2.29zm122.87-12.74c12.26 0 24.53-.02 36.8 0 5.93-.05 12 2.03 16.17 6.35 3.46 3.33 5.15 8.03 5.8 12.71v3.88c-.6 6.33-4.22 12.35-10.21 14.87 2.41 1.42 5.22 2.71 6.53 5.36 1.61 3.17 1.61 6.84 1.77 10.32.04 6.38-.03 12.75 0 19.13-4.96.02-9.92.01-14.87 0-.01-6.04.06-12.08.03-18.12-.08-2.77-.24-5.91-2.33-7.99-2.12-1.95-5.18-2.16-7.91-2.32-5.7-.13-11.41.01-17.11-.02-.02 9.49-.04 18.97.01 28.45-4.9.01-9.79.02-14.68 0 .03-24.21.03-48.41 0-72.62m14.68 12.76c-.05 6.39-.02 12.77-.02 19.15 6.37.02 12.74.07 19.11.01 3.21-.07 6.96-.58 8.97-3.43 3.88-5.04 1.81-14.59-5.12-15.53-7.63-.48-15.29-.11-22.94-.2zM133.55 89.45c10.81.07 21.63-.01 32.44.04 4.98-.06 9.92 1.65 13.83 4.72 9.32 7.32 11.37 21.82 5.1 31.72-3.87 5.95-10.83 9.55-17.87 9.74-6.15.2-12.31.01-18.46.08-.01 8.78-.03 17.57.01 26.35-5.02.02-10.04.01-15.06.01.02-24.22.01-48.44.01-72.66m15.03 12.76c0 7.08-.01 14.15 0 21.23 5.8-.13 11.62.27 17.41-.23 4.09-.3 7.92-3.17 8.83-7.27 1.92-5.6-1.58-12.84-7.79-13.47-6.13-.54-12.3-.11-18.45-.26zm42.2-12.67c12.39-.13 24.78-.05 37.16-.05 8.66-.16 17.67 5.01 20.43 13.49 3.22 8.75.44 21.09-9.31 24.2 4.24 1.59 8.06 5.03 8.33 9.82.54 8.35.08 16.74.25 25.11h-14.53c-.02-7.5.3-15.03-.61-22.5-.47-3.6-4.15-5.62-7.49-5.78-6.46-.46-12.96-.07-19.43-.2-.03 9.49-.03 18.98 0 28.48-4.94-.02-9.88.1-14.81-.13.05-24.15 0-48.3.01-72.44m14.79 12.67c-.02 6.4-.01 12.8-.01 19.2 6.48-.03 12.96.07 19.44-.02 3.19-.06 6.88-.74 8.77-3.61 3.7-5.11 1.58-14.48-5.34-15.35-7.61-.49-15.24-.06-22.86-.22z"/></svg>